<?xml version="1.0" encoding="utf-8"?>
<!-- Generator: Adobe Illustrator 25.0.0, SVG Export Plug-In . SVG Version: 6.00 Build 0)  -->
<svg version="1.1" id="Layer_1" xmlns="http://www.w3.org/2000/svg" xmlns:xlink="http://www.w3.org/1999/xlink" x="0px" y="0px"
	 viewBox="0 0 500 500" style="enable-background:new 0 0 500 500;" xml:space="preserve">
<style type="text/css">
	.st0{fill:url(#SVGID_1_);}
	.st1{fill:url(#SVGID_2_);}
	.st2{fill:url(#SVGID_3_);}
	.st3{fill:#231F1F;}
</style>
<g>
	
		<linearGradient id="SVGID_1_" gradientUnits="userSpaceOnUse" x1="1.5108" y1="1.192" x2="1.6568" y2="1.192" gradientTransform="matrix(99.8224 -58.9835 -58.9835 -99.8224 148.6776 491.9286)">
		<stop  offset="0" style="stop-color:#909CA9"/>
		<stop  offset="1" style="stop-color:#EDEDEE"/>
	</linearGradient>
	<path class="st0" d="M315,196.4l-40.3,13.2l-35.1,15.5l-9.8,2.6c-2.5,2.4-5.1,4.8-8,7.2c-3.1,2.7-6,5.1-8.2,6.9
		c-2.5,2-6.1,5.6-8,7.9c-2.8,3.5-5,7.2-5.9,10c-1.7,5.1-0.9,10.3,2.4,15.1c4.1,6.1,12.4,12.3,22,16.5c4.9,2.2,13.2,4.9,19.4,6.5
		c10.3,2.6,30.3,5.5,41.3,5.9c2.2,0.1,5.2,0.1,5.3,0c0.2-0.2,2-3.4,3.9-7.5c6.8-13.8,11.6-26.8,14.3-37.8c1.6-6.7,2.8-15.6,3.7-26.2
		c0.2-3,0.3-12.9,0.1-16.2c-0.3-5.5-0.8-9.9-1.5-14.3c-0.1-0.6-0.2-1.2-0.1-1.2c0.1-0.1,0.5-0.2,5.5-1.6L315,196.4L315,196.4
		L315,196.4L315,196.4z M305.8,201.8c0.4,0,1.3,9.4,1.6,15.3c0.1,1.2,0,2.1,0,2.1c-0.2,0-5.1-2.9-8.7-5.1c-3-1.9-8.8-5.8-9.7-6.5
		c-0.3-0.2-0.3-0.2,2.2-1.1C295.4,205,305.4,201.8,305.8,201.8z M285.2,208.6c0.3,0,1,0.4,2.7,1.4c6.3,3.9,14.8,8.7,18.5,10.3
		c1.1,0.5,1.2,0.3-1.3,2.1c-5.5,3.8-12.5,7.5-20.9,11.2c-1.5,0.7-2.7,1.2-2.8,1.2c-0.1,0,0.1-0.8,0.4-1.7c2-7.6,3.2-15.3,3.3-21.4
		C284.9,208.6,284.9,208.6,285.2,208.6C285.2,208.6,285.2,208.6,285.2,208.6z M281,210.2c0.2,0.2,0.1,7-0.2,8.9
		c-0.5,4.4-1.4,8.6-2.8,13.3c-0.3,1.1-0.6,2.1-0.7,2.1c-0.1,0.2-4.3-3.9-5.7-5.5c-2.4-2.7-4.2-5.5-5.6-8.2c-0.7-1.4-1.8-4.1-1.7-4.1
		C264.8,216.3,280.9,210.1,281,210.2z M261.1,218C261.1,218,261.1,218,261.1,218c0.2,0.1,0.4,0.6,0.5,1.1c1,2.7,3.2,6.6,5.1,9
		c2.1,2.7,4.8,5.7,7,7.6c0.7,0.6,1.4,1.2,1.5,1.3c0.2,0.2,0.2,0.2-4.7,2c-5.8,2.2-12,4.4-19.2,6.7c-1.7,0.6-3.4,1.1-5.1,1.7
		c-0.3,0.1-0.2-0.1,0.6-1.3c3.6-5.6,9-16.5,12-24.3c0.5-1.3,1-2.7,1.1-3c0.1-0.4,0.3-0.6,0.7-0.8C260.8,218.1,261,218,261.1,218z
		 M255,220.5c0.1,0.1-1.5,3.3-3,6.3c-3,5.8-6.2,11.4-10.5,18.3c-0.7,1.2-1.4,2.3-1.5,2.4c-0.2,0.2-0.2,0.2-0.7-0.8
		c-1-2-1.9-4.7-2.3-7.1c-0.5-2.4-0.4-6.5,0.2-9.1c0.4-1.9,0.4-1.9,1.3-2.3C242.2,226.3,254.8,220.4,255,220.5z M307.5,222.7v1.3
		c0,6.8-0.7,16.1-1.8,22.9c-0.2,1.2-0.3,2.2-0.4,2.2c0,0-0.9-0.2-1.9-0.5c-4.6-1.4-9.5-3.5-14-6c-3-1.6-7.3-4.3-7.1-4.4
		c0,0,1.3-0.7,2.8-1.5c6-3.1,11.7-6.5,16.7-9.8c1.9-1.2,4.7-3.3,5.3-3.8L307.5,222.7z M232,231.7c0.1,0,0.1,0.2-0.1,1.3
		c-0.1,0.8-0.3,2.3-0.3,3.3c-0.2,4.4,0.5,7.7,2.7,12.2c0.6,1.2,1.1,2.3,1.1,2.3c-0.2,0.2-20.4,6.1-26.7,7.8c-1.9,0.5-3.5,1-3.7,1
		c-0.2,0.1-0.2,0-0.2-0.5c0.7-4.5,4.1-10.3,8.9-15.3c3.2-3.3,5.7-5.2,10-7.7C226.8,234.5,231.5,231.8,232,231.7
		C231.9,231.7,231.9,231.7,232,231.7z M279.5,240.2c0,0,0.8,0.4,1.6,0.9c6.5,3.8,15.6,7.3,23.3,9.1l0.7,0.2l-1,0.5
		c-4.1,2.3-17.4,7.8-31,12.9c-2,0.7-3.9,1.5-4.3,1.6c-0.4,0.2-0.7,0.2-0.7,0.2c0,0,0.5-1.1,1.2-2.4c3.8-7.1,7.6-15.8,9.6-21.8
		C279.3,240.7,279.5,240.2,279.5,240.2L279.5,240.2z M274.7,241.8c0,0-0.2,0.7-0.5,1.4c-2.7,6.4-6.1,13.4-10.6,21.3
		c-1.1,2-2.1,3.6-2.1,3.6c0,0-0.9-0.5-2-1.2c-6.5-4-12.2-8.8-15.9-13.6l-0.5-0.7l2.8-0.8c9.9-2.7,18.4-5.6,26.8-9.2
		C273.6,242.2,274.6,241.8,274.7,241.8z M304.8,252.3C304.8,252.3,304.8,252.3,304.8,252.3c0,0.7-1.5,7-2.8,11.5
		c-1.1,3.8-2,6.8-3.7,12.1c-0.7,2.3-1.4,4.2-1.4,4.2c0,0-0.2,0-0.4-0.1c-9-1.6-17.2-3.9-24.8-7c-2.1-0.9-5.2-2.2-5.4-2.4
		c-0.1-0.1,1.8-0.9,4.1-1.9c13.9-6.1,28.2-12.9,33.2-15.9C304.2,252.5,304.7,252.3,304.8,252.3z M235.3,254.7
		c0.1,0.1-3.8,5.6-9.2,13.2c-1.9,2.7-4.1,5.8-4.9,6.9c-0.8,1.2-2.1,3-2.8,4.1l-1.3,2l-1.4-1.2c-1.6-1.3-4.4-4.2-5.7-5.8
		c-2.6-3.3-4.4-6.7-5.1-9.8c-0.3-1.5-0.3-2.2,0-2.3c0.5-0.1,8.6-2,16.2-3.8c4.2-1,9.1-2.1,10.9-2.6
		C233.8,255,235.2,254.7,235.3,254.7z M239.2,256.2l1,1.1c4.4,4.9,8.9,8.5,14.3,11.7c1,0.5,1.7,1,1.6,1.1
		c-0.2,0.2-18.8,6.8-27.5,9.7c-4.8,1.7-8.8,3.1-8.9,3.1c0,0-0.3-0.2-0.6-0.4l-0.5-0.4l0.9-1.3c2.9-4.1,6.5-8.7,14.3-18.1
		L239.2,256.2L239.2,256.2z M263.5,273.6c0,0,1.4,0.5,3,1.1c4,1.5,7.1,2.4,11.3,3.5c5.2,1.3,12.7,2.6,17.1,3c0.7,0.1,1,0.1,0.9,0.2
		c-0.2,0.1-4.7,1.6-8,2.7c-5.2,1.6-21.2,6.4-34.3,10.1c-2.4,0.7-4.5,1.3-4.6,1.3c-0.3,0.1-1.3-0.2-1.3-0.3c0-0.1,0.7-1,1.6-2
		c4.4-5.2,8.7-11.1,12.4-16.6C262.6,274.8,263.5,273.6,263.5,273.6z M258.1,273.7c0,0-2.1,3.5-5.9,9.5c-1.6,2.5-3.4,5.4-4.1,6.4
		c-0.6,1-1.5,2.5-2,3.4l-0.9,1.6l-0.5-0.1c-1.1-0.3-8.8-3-10.8-3.8c-2.5-1-5.1-2.2-7.1-3.3c-2.4-1.3-5.5-3.3-5.2-3.3
		c0.1,0,4.2-1.2,9.3-2.5c13.3-3.6,20.7-5.7,25.6-7.3C257.3,273.9,258.1,273.7,258.1,273.7z M296,282.6L296,282.6
		c0.2,0.3-4.8,14-6.6,18.3c-0.4,1-0.5,1.2-0.8,1.2c-0.5,0-7.7-1-12-1.7c-7.6-1.2-20.3-3.4-23.5-4.1l-0.7-0.2l4.5-1
		c9.8-2.2,14.4-3.4,19.2-4.8c6-1.8,11.9-4.1,17.9-6.9C295,283,295.8,282.6,296,282.6z"/>
	
		<linearGradient id="SVGID_2_" gradientUnits="userSpaceOnUse" x1="0.9809" y1="-9.2237" x2="1.127" y2="-9.2237" gradientTransform="matrix(80.3196 0 0 -80.3196 150.7249 -619.3312)">
		<stop  offset="0" style="stop-color:#939FAB"/>
		<stop  offset="1" style="stop-color:#DCDEE1"/>
	</linearGradient>
	<path class="st1" d="M273.4,102.5c-0.7-0.1-11.5,3.8-18.5,6.6c-9.4,3.8-16.7,7.5-21.2,10.7c-1.7,1.2-3.8,3.3-4.1,4.1
		c-0.1,0.3-0.2,0.7-0.2,1l4.1,3.9l9.7,3.1l23.1,4.1l26.4,4.5l0.3-2.3c-0.1,0-0.2,0-0.2,0l-3.5-0.5l-0.7-1.2
		c-3.6-6.3-7.6-14.2-9.9-19.5c-1.8-4.1-3.5-8.9-4.4-12.3C273.8,102.6,273.7,102.5,273.4,102.5L273.4,102.5L273.4,102.5L273.4,102.5z
		 M272.9,104L272.9,104c0.1,0,0.2,0.9,0.3,1.9c0.5,4.3,1.5,8.4,3,12.8c1.1,3.4,1.1,3.2-0.2,2.8c-3.1-0.9-17-3.3-27.1-4.7
		c-1.6-0.2-3-0.4-3-0.5c-0.1-0.1,7.3-4,10.5-5.5C260.6,108.9,272.1,104.2,272.9,104z M243.5,117.7l1.2,0.4c6.5,2.2,22.7,5.3,31.7,6
		c1,0.1,1.9,0.2,1.9,0.2c0,0-0.8,0.5-1.9,1c-4.3,2.2-9.1,4.8-12.4,6.9c-1,0.6-1.9,1.1-2,1.1c-0.1,0-0.8-0.1-1.4-0.2l-1.2-0.2l-3-3
		c-5.4-5.2-9.6-9.2-11.2-10.8L243.5,117.7z M242.3,118.6l4.3,5.4c2.3,3,4.7,5.8,5.2,6.5c0.5,0.6,0.9,1.2,0.9,1.2
		c-0.1,0.1-6.2-1.1-9.4-1.8c-3.3-0.8-4.7-1.1-6.7-1.8l-1.7-0.5v-0.4c0-2,2.6-5.1,7-8.2L242.3,118.6z M278.8,125.9
		c0.1,0,0.3,0.3,0.6,1.1c1,2.3,4.3,8.4,5.1,9.6c0.2,0.4,0.7,0.4-3.6-0.3c-10.3-1.7-13.6-2.2-13.6-2.3c0,0,0.3-0.2,0.7-0.5
		c3.2-1.8,6.4-4,9.3-6.4c0.7-0.6,1.3-1.1,1.5-1.2C278.7,125.9,278.8,125.9,278.8,125.9z"/>
	
		<radialGradient id="SVGID_3_" cx="1.9345" cy="2.2299" r="0.146" gradientTransform="matrix(-102.4055 -15.3824 -31.1105 204.8109 556.1689 -251.717)" gradientUnits="userSpaceOnUse">
		<stop  offset="0" style="stop-color:#EE352C"/>
		<stop  offset="1" style="stop-color:#A91D22"/>
	</radialGradient>
	<path class="st2" d="M229.8,123.4c0,0-0.7,1.1,0,2.7c0.4,1,1.6,2.2,2.9,3.4c0,0,13.6,13.2,15.2,15.1c7.5,8.7,10.8,17.2,11.1,28.9
		c0.2,7.6-1.2,14.2-4.8,21.9c-6.3,13.8-19.7,29.1-40.3,46l3-1c1.9-1.5,4.6-3,10.8-6.4c14.4-7.9,30.5-15.1,50.3-22.5
		c28.5-10.7,75.4-23.3,102.1-27.4l2.8-0.4l-0.4-0.7c-2.4-3.8-4.1-6.1-6.1-8.6c-5.8-7.3-12.9-13.1-21.6-18
		c-11.9-6.7-27.4-11.9-47-15.8c-3.7-0.7-11.8-2.1-18.4-3.1c-14-2.2-23-3.7-32.9-5.4c-3.6-0.6-8.9-1.5-12.4-2.3
		c-1.8-0.4-5.3-1.2-8.1-2.2C233.6,126.9,230.5,126,229.8,123.4z M237.7,131.1c0,0,0.5,0.2,1.2,0.4c1.2,0.4,2.7,0.9,4.4,1.3
		c1.3,0.4,2.7,0.7,4,1.1c1.8,0.5,3.4,0.9,3.4,0.9c0.2,0.2,3.3,10.1,4.3,13.8c0.4,1.4,0.7,2.7,0.7,2.7c0,0-0.4-0.5-0.8-1.2
		c-3.6-6.3-9.2-12.6-15.7-17.8C238.3,131.6,237.7,131.1,237.7,131.1z M252.7,135.2c0.2,0,0.8,0.1,1.6,0.3c5.2,1.2,14.5,2.9,20.4,3.9
		c1,0.2,1.8,0.3,1.8,0.4c0,0.1-0.4,0.3-0.8,0.5c-1,0.5-5.1,2.9-6.4,3.8c-3.4,2.3-6.4,4.7-8.6,6.9c-0.9,0.9-1.6,1.6-1.6,1.6
		s-0.2-0.5-0.3-1.2c-1.1-4.2-3.4-10.5-5.5-14.9C252.9,135.9,252.6,135.2,252.7,135.2C252.6,135.2,252.6,135.2,252.7,135.2
		L252.7,135.2z M279,140.2c0.2,0.1,0.5,1.1,1.1,3.4c1.1,4.4,1.6,9.4,1.5,14c-0.1,1.3-0.1,2.5-0.2,2.6l-0.1,0.3l-1.6-0.5
		c-3.3-1-8.6-2.6-13.1-3.9c-2.6-0.7-4.7-1.3-4.7-1.4c0-0.2,3.8-4,5.4-5.4C270.4,146.6,278.8,140.1,279,140.2z M281.1,140.5
		c0.1-0.1,12.6,2.1,18.3,3.2c4.2,0.8,10.4,2.1,10.8,2.3c0.2,0.1-0.5,0.4-2.5,1.3c-8,3.6-14,6.9-20,10.8c-1.6,1-2.9,1.9-2.9,1.9
		c0,0-0.1-0.9-0.1-1.9c0-5.8-1.2-11.6-3.3-16.6C281.3,141,281.1,140.6,281.1,140.5z M313.5,146.9c0.1,0.1-0.3,2.6-0.7,4
		c-1.1,4.5-4.1,11.3-7.7,17.6c-0.6,1.1-1.2,2-1.3,2.1c-0.1,0-0.9-0.4-1.8-1c-3.5-2.1-7.6-4-11.9-5.8c-1.2-0.5-2.3-0.9-2.3-1
		c-0.2-0.2,9.6-6.7,14.8-9.8C306.7,150.5,313.4,146.8,313.5,146.9z M315.8,147.3c0.3,0,5.8,1.5,8.7,2.4c7.2,2.1,15.4,5.1,20.7,7.6
		l2.2,1l-1.6,0.4c-13.1,3-24.3,6.5-35.1,10.9c-0.9,0.4-1.7,0.7-1.7,0.7c-0.1,0,0.2-0.7,0.6-1.6c3.3-6.9,5.4-14.1,5.9-20.3
		C315.7,147.8,315.8,147.3,315.8,147.3L315.8,147.3z M260.6,160c0.1-0.1,4.3,0.9,6.6,1.6c3.5,1,10.8,3.4,10.8,3.6
		c0,0-0.8,0.7-1.8,1.6c-4,3.3-7.8,6.8-12.4,11.3c-1.4,1.3-2.5,2.4-2.6,2.4c-0.1,0-0.1-0.2-0.1-0.4c0.7-5.1,0.5-11.7-0.4-18.4
		C260.7,160.7,260.6,160,260.6,160z M349.6,160.1c0.1,0.1-2,3.2-3.2,5c-1.8,2.6-4.5,6.1-10.6,13.7c-3.2,4-6.8,8.6-8,10.1
		c-1.2,1.5-2.2,2.8-2.3,2.8c0,0-0.4-0.5-0.9-1.2c-3.4-5.1-7.5-9.6-12.3-13.6c-0.9-0.8-1.9-1.6-2.3-1.8c-0.3-0.2-0.6-0.5-0.6-0.5
		c0-0.1,5.2-2.3,9.1-3.9c6.9-2.8,16.3-6.2,23.3-8.3C345.6,161.1,349.6,160,349.6,160.1z M352,160.7c0.1,0,0.9,0.3,1.7,0.9
		c7.4,4.2,14.7,9.7,20.4,15.3c1.6,1.6,5.6,5.7,5.5,5.8c0,0-1.4,0.1-3,0.2c-12.8,1-29.2,3.7-45,7.5c-1.1,0.2-2,0.5-2.1,0.5
		c-0.1,0,1.1-1.2,2.6-2.6c9.3-8.9,13.5-14.6,18.5-24.6C351.3,162,351.9,160.8,352,160.7C351.9,160.7,351.9,160.7,352,160.7z
		 M284.1,167.6c0.4,0.1,4.4,2,7.4,3.4c2.7,1.4,6.9,3.6,7.1,3.7c0,0-1.4,0.8-3.2,1.7c-5.7,2.9-10.6,5.6-15.8,8.7
		c-1.5,0.9-2.7,1.6-2.7,1.6c-0.1,0-0.1-0.1,0.7-1.6c2.7-5,4.9-11,6.2-16.8C283.9,167.9,284,167.6,284.1,167.6z M280.2,168.4
		c0.1,0.1-0.9,3.8-1.6,5.9c-1.2,3.9-3.4,8.7-5.4,12.4c-0.5,0.9-1.2,2.1-1.6,2.8l-0.8,1.2l-1.7-1.6c-2-1.9-3.6-3.1-5.7-4.2
		c-0.8-0.4-1.5-0.8-1.5-0.9c0-0.2,5.2-5,9.2-8.4C274,173.1,280.1,168.3,280.2,168.4z M304.4,178.3l1.5,1c3.4,2.2,7.4,5.2,10.5,7.8
		c1.7,1.4,5.1,4.4,5.8,5.2l0.4,0.4l-2.5,0.7c-14,3.9-24.7,7.3-37.3,11.9c-1.4,0.5-2.6,0.9-2.7,0.9c-0.2,0-0.3,0.2,2.8-2.7
		c8-7.4,15.2-15.6,20.5-23.5L304.4,178.3z M298,179.9c0.1,0.1-4.1,5.9-6.6,9.3c-3,4-8.3,10.6-11.9,14.9c-1.5,1.8-2.8,3.3-2.9,3.3
		c-0.1,0-0.1-0.4-0.1-1.1c0-3.7-0.9-7.6-2.6-11c-0.7-1.4-0.8-1.7-0.7-1.9c0.6-0.5,9.4-5.6,15.1-8.6C292,182.8,297.9,179.8,298,179.9
		L298,179.9z M259.5,189.3c0.1,0,0.8,0.4,1.6,0.8c1.9,1.1,3.7,2.3,5.2,3.5c0.1,0.1-0.7,0.7-1.8,1.5c-2.9,2.1-7.3,5.4-9.8,7.4
		c-2.7,2.1-2.8,2.2-2.5,1.7c2-3.1,3-4.8,4.1-7c0.9-2,1.9-4.3,2.6-6.4C259.1,190,259.4,189.3,259.5,189.3z M269.8,197.4
		c0.2,0,0.3,0.2,1.2,1.5c1.7,2.6,3.1,6.1,3.4,8.9l0.1,0.6l-4.2,1.6c-7.5,2.9-14.4,5.8-19,7.9c-1.3,0.6-3.6,1.7-5.1,2.4
		c-1.5,0.8-2.7,1.3-2.7,1.3c0,0,0.9-0.7,2.1-1.6c9.1-6.6,17-13.9,22.9-21.1C269.1,198.1,269.7,197.4,269.8,197.4L269.8,197.4
		L269.8,197.4z M265.1,198.5c0.1,0.1-3.4,4.1-5.7,6.5c-5.9,6-11.7,10.7-18.9,15.3c-0.9,0.6-1.7,1.1-1.8,1.2
		c-0.2,0.1,0.1-0.2,3.2-3.6c2-2.2,3.5-4,5.3-6.2c1.2-1.5,1.4-1.7,3-2.9C254.6,205.4,264.9,198.4,265.1,198.5z"/>
	<path class="st3" d="M133.1,324.7c-0.6,0-1.1,0.1-1.7,0.1c-11.4,0.6-19,5.6-23.5,15.4c-3.8,8.8-3.4,20.4,0,29.2
		c4,8.7,10.5,13.3,21.3,15c2.3,0.4,3.8,1.6,8.3,6.8l5.5,6.4h9.9l-6.6-6.6c-3.6-3.6-6.6-6.8-6.6-7.1c0-0.3,1.4-0.9,3.1-1.4
		c5.6-1.7,10.2-6,13.4-12.6c2.6-5.3,3-6.9,3.4-13.5C160.6,336.8,150.3,324.6,133.1,324.7L133.1,324.7z M141.8,375.9
		c-4.8,2.3-11.8,2.8-16.4,1.1c-4.7-1.7-9.3-6.6-11.4-12.2c-2.3-6.1-2-17.3,0.7-22.3c4.2-8,9.8-11.7,17.9-11.7
		c12,0,18.9,7.4,19.8,21.2C153.1,363.6,149.2,372.3,141.8,375.9L141.8,375.9z M312.9,341.4c-4.2,0-7.3,1.7-9.5,5l-1.7,2.6v-6.8h-7.2
		v40.9h7.2v-13.1c0-12,0.1-13.4,1.8-16.6c2.3-4.5,6.3-6.7,10.1-5.7l2.6,0.7v-7.1L312.9,341.4L312.9,341.4L312.9,341.4z M270.7,341
		c-1.4,0-2.9,0.2-4.4,0.5c-9.6,2.5-15,11.7-14.7,21.2c0,7.9,1.5,11.9,5.4,16.1c7.8,6.4,14.9,6.9,24.5,3.5c1.6-0.7,3.4-1.5,3.4-1.5
		v-6.4l-3.4,1.8c-7.7,3.4-13.6,3.4-18.3-0.6c-3-3-4.3-6.7-4.9-10.8h29v-5.5C287.3,348,280.5,340.9,270.7,341L270.7,341L270.7,341z
		 M259,359c0,0,1.1-7,5-9.8c1.9-1.3,4.1-2,6.3-2c2.2,0,4.3,0.7,6.1,2.1c3.6,2.8,4.3,9.7,4.3,9.7L259,359L259,359L259,359z
		 M85.6,351.6c-7.8-4.7-11.3-8.1-10.8-12.1c1.2-11.1,14.9-9.6,22.5-5.4l0.1-7.5c0,0-4.2-1.8-10.2-1.9c-9.2-0.1-15.2,2.9-18,9.1
		c-4.1,9.1-0.5,16,12.7,23.6c7.4,4.3,10.7,8,10.7,12.1c0,8.4-10.1,11.3-20.6,6.1c-2.2-1.1-4-2-4.1-2c-0.4,2.4-0.2,8.1-0.2,8.1
		s3.2,1.3,8,2.3c12,2.4,22.8-3.2,23.9-12.3C100.4,363.1,97.3,358.6,85.6,351.6L85.6,351.6z M376.6,341c-1.4,0-2.9,0.2-4.4,0.5
		c-9.6,2.5-15,11.7-14.7,21.2c0,7.9,1.5,11.9,5.4,16c7.8,6.4,14.9,7,24.6,3.5c1.6-0.7,3.4-1.5,3.4-1.5v-6.4l-3.4,1.8
		c-7.8,3.4-13.6,3.4-18.3-0.6c-3-3-4.3-6.6-4.9-10.8h28.9v-5.5C393.2,347.9,386.4,340.8,376.6,341L376.6,341z M364.8,358.9
		c0,0,1.1-7,5-9.8c1.9-1.4,4.1-2,6.2-2c2.1,0,4.3,0.7,6.1,2.1c3.6,2.8,4.3,9.7,4.3,9.7L364.8,358.9L364.8,358.9L364.8,358.9z
		 M233,351.7c-7.8-4.7-11.2-8.1-10.8-12.1c1.2-11.1,14.9-9.6,22.5-5.4l0.1-7.5c0,0-4.2-1.8-10.2-1.9c-9.2-0.1-15.2,2.9-18,9.1
		c-4.1,9.1-0.4,16,12.7,23.6c7.4,4.3,10.6,8,10.6,12c0,8.4-10.1,11.4-20.6,6.1c-2.1-1.1-4-2-4.1-2c-0.4,2.4-0.2,8.1-0.2,8.1
		s3.2,1.3,8,2.3c12,2.4,22.8-3.2,23.9-12.3C247.8,363.2,244.7,358.7,233,351.7L233,351.7L233,351.7z M418.8,341.3
		c-4.2,0-7.4,1.7-9.5,5l-1.7,2.6v-6.8h-7.2V383h7.2V370c0-12,0.1-13.4,1.8-16.6c2.3-4.5,6.3-6.7,10.1-5.6l2.6,0.7v-7.1L418.8,341.3
		L418.8,341.3z M175.8,351.5v-26.1h-7.2v57.7h30.5v-6.8h-23.2L175.8,351.5L175.8,351.5z M343.5,359.6l-6,15.5l-5.7-15.6l-5.8-17.3
		h-7.4c4.8,13.6,10,27.5,15.3,40.9c2.3,0.1,4.6,0,6.9,0l8.1-20.3l8.2-20.7h-7.1C349.9,342.2,346.8,350.4,343.5,359.6L343.5,359.6z
		 M192.6,309.7c1.2,0,2.1-0.4,2.9-1.2c0.8-0.8,1.2-1.7,1.2-2.9c0-1.2-0.4-2.1-1.2-2.9c-0.8-0.7-1.7-1.1-2.9-1.1
		c-1.2,0-2.2,0.4-2.9,1.2c-0.8,0.8-1.2,1.8-1.2,2.9c0,1.2,0.4,2.2,1.2,2.9C190.4,309.3,191.4,309.7,192.6,309.7L192.6,309.7z
		 M190,303c0.7-0.7,1.5-1,2.6-1c1,0,1.9,0.3,2.6,1c0.7,0.7,1.1,1.5,1.1,2.6c0,1-0.4,1.9-1.1,2.6c-0.7,0.7-1.6,1-2.6,1
		c-1,0-1.9-0.3-2.6-1c-0.7-0.7-1.1-1.6-1.1-2.6C189,304.6,189.3,303.7,190,303z M191.7,306h0.5c0.3,0,0.7,0.3,0.9,0.9l0.6,1.3h0.9
		l-0.7-1.4c-0.3-0.6-0.6-0.9-0.9-1c0.4-0.1,0.7-0.2,1-0.5c0.2-0.2,0.3-0.6,0.3-0.9c0-0.4-0.1-0.7-0.4-1c-0.3-0.3-0.8-0.4-1.5-0.4
		h-1.5v5.2h0.7L191.7,306L191.7,306z M191.7,303.6h0.7c0.5,0,0.8,0.1,1,0.2c0.2,0.1,0.2,0.3,0.2,0.7c0,0.6-0.4,0.9-1.1,0.9h-0.8
		L191.7,303.6L191.7,303.6z M72,305.5c0-1.8-0.1-3.2-0.1-4h0c0.2,0.9,0.4,1.6,0.6,2.1l7,15.5h1.2l7-15.7c0.2-0.4,0.4-1.1,0.6-2h0.1
		c-0.1,1.6-0.2,2.9-0.2,4v13.7h2.4v-20.4h-3L81.1,313c-0.2,0.6-0.6,1.4-1,2.5H80c-0.1-0.6-0.5-1.4-0.9-2.4l-6.3-14.3h-3.2v20.4h2.3
		L72,305.5L72,305.5z M95.7,305.6h2.1v12.7h-2.1V305.6z M96.7,300.9c0.4,0,0.8-0.1,1.1-0.4c0.3-0.3,0.5-0.6,0.5-1.1
		c0-0.4-0.1-0.8-0.5-1.1c-0.3-0.3-0.7-0.4-1.1-0.4c-0.4,0-0.8,0.1-1.1,0.4c-0.3,0.3-0.5,0.7-0.5,1.1c0,0.5,0.1,0.8,0.5,1.1
		C95.9,300.8,96.3,300.9,96.7,300.9L96.7,300.9z M112.4,318.5v-2.2c-1.1,0.8-2.3,1.3-3.6,1.3c-1.5,0-2.7-0.5-3.6-1.5
		c-0.9-1-1.4-2.3-1.4-4c0-1.8,0.5-3.2,1.4-4.2c0.9-1,2.2-1.5,3.6-1.5c1.2,0,2.4,0.4,3.5,1.1V305c-1-0.5-2.1-0.7-3.4-0.7
		c-2.3,0-4.2,0.7-5.5,2.2c-1.3,1.4-2,3.4-2,5.8c0,2.1,0.6,3.9,1.9,5.2c1.3,1.4,3,2.1,5,2.1C110,319.5,111.3,319.2,112.4,318.5z
		 M118.3,311.8c0-1.7,0.4-3,1.1-4c0.7-0.8,1.4-1.3,2.4-1.3c0.8,0,1.4,0.1,1.8,0.5v-2.4c-0.3-0.1-0.8-0.2-1.4-0.2
		c-0.8,0-1.6,0.3-2.2,0.8c-0.7,0.6-1.3,1.4-1.6,2.5h-0.1v-3h-2.3v14.6h2.3L118.3,311.8L118.3,311.8z M131.7,319.5
		c2.2,0,4-0.7,5.3-2.1c1.3-1.4,2-3.3,2-5.6c0-2.4-0.6-4.2-1.8-5.6c-1.2-1.4-2.9-2-5.1-2c-2.2,0-4,0.7-5.3,1.9
		c-1.4,1.4-2.1,3.4-2.1,5.9c0,2.2,0.6,4,1.9,5.4C127.8,318.8,129.5,319.5,131.7,319.5L131.7,319.5z M128.4,307.7
		c0.9-0.9,2.1-1.4,3.5-1.4c1.5,0,2.6,0.5,3.5,1.4c0.8,1,1.3,2.4,1.3,4.2c0,1.8-0.4,3.2-1.2,4.1c-0.8,1-2,1.5-3.5,1.5
		c-1.5,0-2.7-0.5-3.6-1.5c-0.9-1-1.3-2.3-1.3-4.1C127,310.1,127.4,308.7,128.4,307.7z M149.1,318.3c0.9-0.8,1.4-1.8,1.4-3
		c0-1.1-0.4-2-1.1-2.7c-0.6-0.6-1.4-1.1-2.7-1.6c-1.1-0.5-1.8-0.9-2.2-1.2c-0.4-0.4-0.6-0.8-0.6-1.5c0-0.6,0.2-1.1,0.7-1.4
		c0.5-0.4,1.1-0.6,1.9-0.6c1.3,0,2.3,0.3,3.3,1V305c-0.9-0.5-2-0.7-3.1-0.7c-1.5,0-2.8,0.4-3.7,1.2c-1,0.8-1.4,1.8-1.4,3
		c0,1.1,0.3,2,0.9,2.6c0.5,0.6,1.4,1.1,2.6,1.6c1.2,0.5,2,1,2.4,1.4c0.4,0.4,0.6,0.8,0.6,1.4c0,1.4-0.9,2.1-2.8,2.1
		c-1.4,0-2.7-0.5-3.8-1.4v2.5c1,0.6,2.2,0.9,3.6,0.9C146.8,319.5,148.2,319.1,149.1,318.3L149.1,318.3z M160.2,304.3
		c-2.2,0-4,0.7-5.3,1.9c-1.4,1.4-2.1,3.4-2.1,5.9c0,2.2,0.6,4,1.9,5.4c1.3,1.4,3,2.1,5.2,2.1c2.2,0,4-0.7,5.3-2.1
		c1.3-1.4,2-3.3,2-5.6c0-2.4-0.6-4.2-1.8-5.6C164.1,304.9,162.4,304.3,160.2,304.3L160.2,304.3z M164.8,311.9c0,1.8-0.4,3.2-1.2,4.1
		c-0.8,1-2,1.5-3.5,1.5c-1.5,0-2.7-0.5-3.6-1.5c-0.9-1-1.3-2.3-1.3-4.1c0-1.9,0.5-3.3,1.4-4.3c0.9-0.9,2.1-1.4,3.5-1.4
		c1.4,0,2.6,0.5,3.4,1.4C164.4,308.6,164.8,310,164.8,311.9L164.8,311.9z M171.1,319.2h2.3v-12.6h3.4v-2h-3.4v-2.2
		c0-2,0.8-3.1,2.4-3.1c0.6,0,1.1,0.1,1.5,0.4v-2.1c-0.4-0.2-1-0.2-1.7-0.2c-1.3,0-2.3,0.4-3.1,1.2c-1,0.9-1.5,2.1-1.5,3.8v2.4h-2.5
		v2h2.5L171.1,319.2L171.1,319.2z M180.7,315.2c0,2.8,1.3,4.3,3.8,4.3c0.9,0,1.6-0.1,2.2-0.5v-2c-0.4,0.3-0.9,0.5-1.5,0.5
		c-0.8,0-1.3-0.2-1.7-0.6c-0.3-0.4-0.5-1.1-0.5-2.1v-8.2h3.7v-2H183v-4.3c-0.8,0.3-1.6,0.5-2.3,0.7v3.5h-2.5v2h2.5L180.7,315.2
		L180.7,315.2z M431.2,342.1c-0.8-0.7-1.7-1.1-2.9-1.1c-1.2,0-2.2,0.4-2.9,1.2c-0.8,0.8-1.2,1.8-1.2,2.9c0,1.2,0.4,2.1,1.2,2.9
		c0.8,0.7,1.8,1.1,2.9,1.1c1.2,0,2.1-0.4,2.9-1.2c0.8-0.8,1.2-1.7,1.2-2.9C432.5,343.8,432,342.8,431.2,342.1L431.2,342.1z
		 M430.9,347.6c-0.7,0.7-1.5,1-2.6,1c-1,0-1.9-0.3-2.6-1c-0.7-0.7-1.1-1.6-1.1-2.6c0-1,0.3-1.9,1-2.6c0.7-0.7,1.5-1,2.6-1
		c1,0,1.9,0.3,2.6,1c0.7,0.7,1.1,1.6,1.1,2.6C431.9,346,431.6,346.9,430.9,347.6z M428.8,345.2c0.4-0.1,0.7-0.3,1-0.5
		c0.2-0.2,0.3-0.6,0.3-0.9c0-0.4-0.1-0.7-0.4-1c-0.3-0.3-0.8-0.4-1.5-0.4h-1.5v5.2h0.7v-2.2h0.5c0.3,0,0.6,0.3,0.9,0.9l0.6,1.3h0.9
		l-0.7-1.4C429.3,345.6,429,345.3,428.8,345.2L428.8,345.2L428.8,345.2z M428.3,344.7h-0.8V343h0.7c0.5,0,0.8,0.1,1,0.2
		c0.2,0.1,0.2,0.3,0.2,0.7C429.3,344.5,429,344.7,428.3,344.7L428.3,344.7z M298,304h0.7v-5.2h1.7v-0.7h-4.1v0.7h1.7L298,304
		L298,304z M301.9,300.1c0-0.5,0-0.9,0-1.2c0,0.3,0.1,0.5,0.2,0.6l2,4.5h0.3l2-4.5c0.1-0.1,0.1-0.3,0.2-0.6c0,0.5,0,0.8,0,1.1v4h0.7
		v-5.9h-0.8l-1.8,4.1c0,0.1-0.2,0.4-0.3,0.8h-0.1c0-0.2-0.1-0.4-0.3-0.7l-1.8-4.1h-0.9v5.9h0.7L301.9,300.1L301.9,300.1z"/>
</g>
</svg>
